<svg width="48" height="51" viewBox="0 0 48 51" fill="none" xmlns="http://www.w3.org/2000/svg">
<path d="M0 17.3256C0 11.4418 0 8.49994 1.12587 6.26067C2.07462 4.37365 3.56382 2.83505 5.39026 1.85483C7.55764 0.69162 10.4051 0.69162 16.1 0.69162H31.9C37.5949 0.69162 40.4424 0.69162 42.6097 1.85483C44.4362 2.83505 45.9254 4.37365 46.8741 6.26067C48 8.49994 48 11.4418 48 17.3256V33.6497C48 39.5335 48 42.4754 46.8741 44.7147C45.9254 46.6017 44.4362 48.1403 42.6097 49.1205C40.4424 50.2838 37.5949 50.2838 31.9 50.2838H16.1C10.4051 50.2838 7.55764 50.2838 5.39026 49.1205C3.56382 48.1403 2.07462 46.6017 1.12587 44.7147C0 42.4754 0 39.5335 0 33.6497V17.3256Z" fill="url(#paint0_linear_81_63713)"/>
<path d="M33.3333 32.3755L34.4 25.4877H28V20.6662C28 18.7376 28.6667 17.2223 31.6 17.2223H34.6667V10.8855C32.9333 10.61 31.0667 10.3345 29.3333 10.3345C23.8667 10.3345 20 13.7784 20 19.9774V25.4877H14V32.3755H20V50.2837C22.6667 50.2837 25.3333 50.2837 28 50.2837V32.3755H33.3333Z" fill="white"/>
<defs>
<linearGradient id="paint0_linear_81_63713" x1="24" y1="48.8348" x2="24" y2="0.69162" gradientUnits="userSpaceOnUse">
<stop stop-color="#0062E0"/>
<stop offset="1" stop-color="#19AFFF"/>
</linearGradient>
</defs>
</svg>
