<svg width="48" height="51" viewBox="0 0 48 51" fill="none" xmlns="http://www.w3.org/2000/svg">
<g clip-path="url(#clip0_81_63714)">
<path d="M0.0273438 17.2925C0.0273438 11.4087 0.0273438 8.46677 1.15321 6.2275C2.10196 4.34048 3.59117 2.80188 5.4176 1.82166C7.58498 0.658447 10.4324 0.658447 16.1273 0.658447H31.9273C37.6222 0.658447 40.4697 0.658447 42.6371 1.82166C44.4635 2.80188 45.9527 4.34048 46.9015 6.2275C48.0273 8.46677 48.0273 11.4087 48.0273 17.2925V33.6166C48.0273 39.5004 48.0273 42.4423 46.9015 44.6815C45.9527 46.5686 44.4635 48.1071 42.6371 49.0874C40.4697 50.2506 37.6222 50.2506 31.9273 50.2506H16.1273C10.4324 50.2506 7.58498 50.2506 5.4176 49.0874C3.59117 48.1071 2.10196 46.5686 1.15321 44.6815C0.0273438 42.4423 0.0273438 39.5004 0.0273438 33.6166V17.2925Z" fill="url(#paint0_radial_81_63714)"/>
<path d="M0.0273438 17.2925C0.0273438 11.4087 0.0273438 8.46677 1.15321 6.2275C2.10196 4.34048 3.59117 2.80188 5.4176 1.82166C7.58498 0.658447 10.4324 0.658447 16.1273 0.658447H31.9273C37.6222 0.658447 40.4697 0.658447 42.6371 1.82166C44.4635 2.80188 45.9527 4.34048 46.9015 6.2275C48.0273 8.46677 48.0273 11.4087 48.0273 17.2925V33.6166C48.0273 39.5004 48.0273 42.4423 46.9015 44.6815C45.9527 46.5686 44.4635 48.1071 42.6371 49.0874C40.4697 50.2506 37.6222 50.2506 31.9273 50.2506H16.1273C10.4324 50.2506 7.58498 50.2506 5.4176 49.0874C3.59117 48.1071 2.10196 46.5686 1.15321 44.6815C0.0273438 42.4423 0.0273438 39.5004 0.0273438 33.6166V17.2925Z" fill="url(#paint1_radial_81_63714)"/>
<path d="M24.0006 7.42102C19.2604 7.42102 18.6655 7.44244 16.8038 7.52997C14.9456 7.61789 13.6773 7.92183 12.5675 8.36778C11.4196 8.82839 10.4458 9.44453 9.47562 10.4473C8.50474 11.4496 7.9084 12.4557 7.46114 13.6415C7.02842 14.7885 6.73389 16.0993 6.65025 18.0183C6.56698 19.9419 6.54517 20.5569 6.54517 25.4545C6.54517 30.3521 6.56626 30.9649 6.65062 32.8885C6.73607 34.8083 7.03024 36.1187 7.4615 37.2653C7.90767 38.4514 8.50402 39.4575 9.47453 40.4599C10.4443 41.463 11.4181 42.0807 12.5653 42.5413C13.6759 42.9872 14.9445 43.2912 16.8023 43.3791C18.6641 43.4666 19.2586 43.488 23.9985 43.488C28.739 43.488 29.3321 43.4666 31.1939 43.3791C33.052 43.2912 34.3218 42.9872 35.4323 42.5413C36.5799 42.0807 37.5522 41.463 38.522 40.4599C39.4929 39.4575 40.0892 38.4514 40.5365 37.2657C40.9656 36.1187 41.2601 34.8079 41.3474 32.8888C41.431 30.9653 41.4528 30.3521 41.4528 25.4545C41.4528 20.5569 41.431 19.9423 41.3474 18.0187C41.2601 16.0989 40.9656 14.7885 40.5365 13.6418C40.0892 12.4557 39.4929 11.4496 38.522 10.4473C37.5511 9.44415 36.5803 8.82801 35.4312 8.36778C34.3185 7.92183 33.0495 7.61789 31.1913 7.52997C29.3296 7.44244 28.7369 7.42102 23.9952 7.42102H24.0006ZM22.4349 10.6708C22.8996 10.6701 23.4181 10.6708 24.0006 10.6708C28.6609 10.6708 29.2132 10.6881 31.0535 10.7745C32.7553 10.8549 33.6789 11.1487 34.2941 11.3955C35.1087 11.7224 35.6894 12.1131 36.2999 12.7443C36.9108 13.3755 37.289 13.9766 37.606 14.8181C37.8449 15.4531 38.1297 16.4073 38.2071 18.1656C38.2907 20.0666 38.3089 20.6377 38.3089 25.4504C38.3089 30.2631 38.2907 30.8341 38.2071 32.7352C38.1293 34.4934 37.8449 35.4477 37.606 36.0826C37.2897 36.9242 36.9108 37.5234 36.2999 38.1542C35.689 38.7854 35.109 39.1761 34.2941 39.503C33.6796 39.751 32.7553 40.044 31.0535 40.1244C29.2136 40.2108 28.6609 40.2296 24.0006 40.2296C19.34 40.2296 18.7877 40.2108 16.9478 40.1244C15.246 40.0433 14.3224 39.7495 13.7068 39.5026C12.8922 39.1758 12.3104 38.785 11.6996 38.1539C11.0887 37.5227 10.7105 36.9231 10.3934 36.0811C10.1545 35.4462 9.86979 34.4919 9.79234 32.7337C9.70871 30.8326 9.69198 30.2616 9.69198 25.4459C9.69198 20.6302 9.70871 20.0621 9.79234 18.1611C9.87016 16.4028 10.1545 15.4486 10.3934 14.8129C10.7098 13.9713 11.0887 13.3702 11.6996 12.739C12.3104 12.1079 12.8922 11.7171 13.7068 11.3895C14.322 11.1416 15.246 10.8485 16.9478 10.7677C18.5579 10.6926 19.1819 10.6701 22.4349 10.6663V10.6708ZM33.3174 13.6651C32.1611 13.6651 31.223 14.6333 31.223 15.8284C31.223 17.0231 32.1611 17.9924 33.3174 17.9924C34.4738 17.9924 35.4119 17.0231 35.4119 15.8284C35.4119 14.6337 34.4738 13.6644 33.3174 13.6644V13.6651ZM24.0006 16.1936C19.0506 16.1936 15.0373 20.3401 15.0373 25.4545C15.0373 30.5689 19.0506 34.7136 24.0006 34.7136C28.9507 34.7136 32.9625 30.5689 32.9625 25.4545C32.9625 20.3401 28.9503 16.1936 24.0003 16.1936H24.0006ZM24.0006 19.4434C27.2136 19.4434 29.8186 22.1345 29.8186 25.4545C29.8186 28.7742 27.2136 31.4657 24.0006 31.4657C20.7873 31.4657 18.1826 28.7742 18.1826 25.4545C18.1826 22.1345 20.7873 19.4434 24.0006 19.4434Z" fill="white"/>
</g>
<defs>
<radialGradient id="paint0_radial_81_63714" cx="0" cy="0" r="1" gradientUnits="userSpaceOnUse" gradientTransform="translate(12.7774 54.0702) rotate(-90) scale(49.1495 44.2453)">
<stop stop-color="#FFDD55"/>
<stop offset="0.1" stop-color="#FFDD55"/>
<stop offset="0.5" stop-color="#FF543E"/>
<stop offset="1" stop-color="#C837AB"/>
</radialGradient>
<radialGradient id="paint1_radial_81_63714" cx="0" cy="0" r="1" gradientUnits="userSpaceOnUse" gradientTransform="translate(-8.01291 4.23098) rotate(79.0351) scale(21.9433 87.7608)">
<stop stop-color="#3771C8"/>
<stop offset="0.128" stop-color="#3771C8"/>
<stop offset="1" stop-color="#6600FF" stop-opacity="0"/>
</radialGradient>
<clipPath id="clip0_81_63714">
<rect width="48" height="49.5921" fill="white" transform="translate(0 0.658447)"/>
</clipPath>
</defs>
</svg>
