<svg width="48" height="51" viewBox="0 0 48 51" fill="none" xmlns="http://www.w3.org/2000/svg">
<g clip-path="url(#clip0_81_63715)">
<path d="M0 17.3256C0 11.4418 0 8.49994 1.12587 6.26067C2.07462 4.37365 3.56382 2.83505 5.39026 1.85483C7.55764 0.69162 10.4051 0.69162 16.1 0.69162H31.9C37.5949 0.69162 40.4424 0.69162 42.6097 1.85483C44.4362 2.83505 45.9254 4.37365 46.8741 6.26067C48 8.49994 48 11.4418 48 17.3256V33.6497C48 39.5335 48 42.4754 46.8741 44.7147C45.9254 46.6017 44.4362 48.1403 42.6097 49.1205C40.4424 50.2838 37.5949 50.2838 31.9 50.2838H16.1C10.4051 50.2838 7.55764 50.2838 5.39026 49.1205C3.56382 48.1403 2.07462 46.6017 1.12587 44.7147C0 42.4754 0 39.5335 0 33.6497V17.3256Z" fill="black"/>
<path d="M14.5637 30.3856C14.759 28.7146 15.4224 27.779 16.6724 26.82C18.461 25.521 20.6952 26.2558 20.6952 26.2558V21.8969C21.2383 21.8825 21.7817 21.9158 22.3189 21.9963V27.6058C22.3189 27.6058 20.0854 26.871 18.2968 28.1706C17.0475 29.129 16.3828 30.0653 16.1881 31.7363C16.182 32.6437 16.3468 33.8298 17.1058 34.8554C16.9182 34.756 16.7269 34.6427 16.532 34.5155C14.8601 33.3556 14.5556 31.6154 14.5637 30.3856ZM31.5439 13.8373C30.3136 12.4443 29.8483 11.0379 29.6801 10.05H31.2279C31.2279 10.05 30.9193 12.6404 33.1684 15.1879L33.1996 15.2222C32.5934 14.8283 32.0375 14.3633 31.5439 13.8373ZM39.0001 17.7865V23.2831C39.0001 23.2831 37.025 23.2032 35.5633 22.819C33.5224 22.2817 32.2107 21.4576 32.2107 21.4576C32.2107 21.4576 31.3045 20.87 31.2313 20.829V32.1796C31.2313 32.8116 31.0637 34.3899 30.553 35.7063C29.8863 37.4284 28.8574 38.5587 28.6681 38.7898C28.6681 38.7898 27.4167 40.3178 25.209 41.3467C23.219 42.2749 21.4718 42.2514 20.9495 42.2749C20.9495 42.2749 17.9292 42.3985 15.2114 40.5736C14.6237 40.1714 14.0751 39.7159 13.5728 39.2129L13.5863 39.223C16.3048 41.0478 19.3244 40.9242 19.3244 40.9242C19.8473 40.9007 21.5945 40.9242 23.5839 39.996C25.7896 38.9671 27.043 37.4391 27.043 37.4391C27.2302 37.2081 28.2639 36.0777 28.9279 34.355C29.4373 33.0393 29.6062 31.4603 29.6062 30.8283V19.479C29.6794 19.5206 30.5849 20.1083 30.5849 20.1083C30.5849 20.1083 31.8973 20.9331 33.9382 21.4697C35.4005 21.8539 37.3749 21.9338 37.3749 21.9338V17.6266C38.0505 17.7831 38.6263 17.8254 39.0001 17.7865Z" fill="#FD355A"/>
<path d="M37.3756 17.6266V21.9325C37.3756 21.9325 35.4012 21.8526 33.9388 21.4684C31.898 20.9311 30.5855 20.107 30.5855 20.107C30.5855 20.107 29.68 19.5193 29.6068 19.4777V30.8296C29.6068 31.4616 29.4393 33.0406 28.9285 34.3563C28.2618 36.0791 27.2329 37.2094 27.0436 37.4405C27.0436 37.4405 25.7916 38.9684 23.5845 39.9974C21.5952 40.9256 19.848 40.9021 19.325 40.9256C19.325 40.9256 16.3054 41.0492 13.587 39.2243L13.5734 39.2143C13.2864 38.9271 13.0162 38.6239 12.7642 38.3062C11.8967 37.2135 11.365 35.9212 11.2314 35.5525C11.2311 35.551 11.2311 35.5494 11.2314 35.5478C11.0163 34.9071 10.5646 33.3684 10.6263 31.878C10.7355 29.2486 11.6308 27.6346 11.8676 27.2303C12.4945 26.1277 13.3099 25.1413 14.2774 24.3148C15.1312 23.6016 16.099 23.0341 17.141 22.6357C18.2675 22.1679 19.4738 21.9171 20.6951 21.8969V26.2558C20.6951 26.2558 18.4609 25.5237 16.673 26.8199C15.423 27.779 14.7597 28.7146 14.5643 30.3856C14.5562 31.6154 14.8607 33.3556 16.5313 34.5162C16.7262 34.6438 16.9174 34.7571 17.1051 34.856C17.3969 35.248 17.7522 35.5895 18.1564 35.8668C19.7883 36.9341 21.1557 37.0086 22.9042 36.3155C24.0701 35.8521 24.9478 34.8077 25.3548 33.6505C25.6105 32.9278 25.6071 32.2004 25.6071 31.4482V10.05H29.6767C29.8449 11.0379 30.3101 12.4443 31.5405 13.8373C32.0341 14.3633 32.59 14.8283 33.1961 15.2222C33.3752 15.4136 34.2909 16.3599 35.4663 16.9409C36.0741 17.2412 36.7147 17.4713 37.3756 17.6266Z" fill="white"/>
<path d="M9.61157 34.2141V34.2174L9.71255 34.5002C9.70095 34.4673 9.66343 34.3672 9.61157 34.2141Z" fill="#33F3ED"/>
<path d="M17.141 22.6357C16.099 23.0342 15.1312 23.6016 14.2774 24.3148C13.3095 25.1432 12.4944 26.1317 11.8682 27.2364C11.6315 27.6394 10.7362 29.2547 10.627 31.8841C10.5653 33.3744 11.017 34.9132 11.232 35.5539C11.2318 35.5555 11.2318 35.557 11.232 35.5586C11.3677 35.924 11.8974 37.2162 12.7649 38.3123C13.0169 38.63 13.287 38.9332 13.574 39.2203C12.6545 38.5906 11.8343 37.8291 11.1405 36.961C10.2804 35.8776 9.75002 34.5988 9.61165 34.2214C9.61149 34.2187 9.61149 34.216 9.61165 34.2133V34.2086C9.39597 33.5685 8.94289 32.0292 9.00597 30.5368C9.11517 27.9074 10.0105 26.2934 10.2472 25.8891C10.8731 24.7843 11.6883 23.7957 12.6564 22.9675C13.51 22.2541 14.4778 21.6866 15.52 21.2884C16.17 21.0213 16.8472 20.8243 17.5398 20.7007C18.5837 20.5203 19.6497 20.5047 20.6985 20.6544V21.8969C19.476 21.9167 18.2685 22.1675 17.141 22.6357Z" fill="#33F3ED"/>
<path d="M29.68 10.05H25.6104V31.4489C25.6104 32.2011 25.6104 32.9265 25.3581 33.6512C24.9471 34.8077 24.0728 35.8521 22.9076 36.3155C21.1583 37.0113 19.7909 36.9341 18.1597 35.8669C17.7548 35.5908 17.3987 35.2504 17.1057 34.8594C18.4955 35.5935 19.7394 35.5808 21.2804 34.9682C22.445 34.5048 23.3206 33.4604 23.7303 32.3032C23.9867 31.5805 23.9833 30.8531 23.9833 30.1016V8.69867H29.6027C29.6027 8.69867 29.5396 9.2306 29.68 10.05ZM37.3755 16.4359V17.6267C36.7158 17.4711 36.0763 17.241 35.4696 16.9409C34.2942 16.36 33.3785 15.4137 33.1995 15.2222C33.4073 15.3573 33.6229 15.4802 33.8452 15.5903C35.2743 16.2968 36.6817 16.5077 37.3755 16.4359Z" fill="#33F3ED"/>
</g>
<defs>
<clipPath id="clip0_81_63715">
<rect width="48" height="49.5921" fill="white" transform="translate(0 0.69162)"/>
</clipPath>
</defs>
</svg>
